<svg xmlns="http://www.w3.org/2000/svg" version="1.0" preserveAspectRatio="xMidYMid meet" viewBox="158 158 884 884">

<g transform="translate(0.000000,1200.000000) scale(0.100000,-0.100000)" fill="#000000" stroke="none">
<path d="M1580 6000 l0 -4420 4420 0 4420 0 0 4420 0 4420 -4420 0 -4420 0 0 -4420z m8695 0 l0 -4275 -4275 0 -4275 0 -3 4265 c-1 2346 0 4271 3 4278 3 10 864 12 4277 10 l4273 -3 0 -4275z"/>
<path d="M8345 5536 c-17 -7 -43 -28 -58 -45 -98 -117 25 -291 170 -239 l41 15 113 -113 113 -113 -23 -42 c-34 -60 -40 -161 -13 -221 l20 -46 -89 -71 c-49 -40 -96 -74 -104 -77 -8 -3 -24 1 -37 10 -30 21 -105 20 -148 -2 -38 -20 -80 -89 -80 -132 1 -43 37 -108 72 -130 44 -26 122 -27 165 0 59 36 88 127 59 191 -5 11 16 34 80 85 48 38 93 72 100 77 7 4 34 -6 65 -25 49 -31 59 -33 142 -34 l90 0 35 -69 c27 -54 32 -72 23 -85 -48 -65 -52 -76 -48 -123 7 -86 67 -142 152 -142 90 0 150 60 150 150 0 88 -59 148 -147 151 l-52 2 -37 74 -37 73 33 27 c18 16 43 49 55 74 18 37 26 45 44 40 11 -2 38 -8 59 -11 29 -6 37 -12 37 -29 0 -35 43 -98 80 -118 44 -24 124 -20 163 8 33 23 67 90 67 130 0 41 -39 104 -77 127 -66 38 -168 16 -201 -44 -16 -29 -19 -30 -65 -24 -73 9 -77 12 -77 59 -1 58 -33 123 -87 173 l-46 43 24 63 25 62 49 7 c62 9 94 32 123 90 27 53 23 98 -12 151 -28 41 -69 61 -128 62 -77 0 -148 -70 -148 -147 0 -43 31 -112 56 -126 15 -8 14 -16 -10 -78 l-27 -69 -77 0 c-63 0 -85 -5 -120 -25 l-43 -24 -114 114 -114 113 16 30 c19 38 12 110 -14 145 -47 62 -126 87 -188 58z"/>
<path d="M3900 3825 l0 -75 2850 0 2850 0 0 75 0 75 -2850 0 -2850 0 0 -75z"/>
<path d="M8360 3172 c-46 -37 -15 -112 46 -112 13 0 33 9 44 20 59 59 -25 145 -90 92z"/>
<path d="M3313 3143 l-33 -4 0 -275 0 -274 60 0 60 0 0 139 c0 139 0 140 26 160 15 12 34 21 43 21 36 0 41 -20 41 -172 l0 -148 58 0 58 0 -1 163 c-2 215 -15 240 -117 239 -21 -1 -54 -10 -73 -22 l-35 -22 0 101 0 101 -27 -2 c-16 0 -43 -3 -60 -5z"/>
<path d="M7310 3105 l0 -45 55 0 55 0 0 -172 c0 -95 5 -190 11 -212 20 -74 80 -106 172 -92 64 10 71 17 58 59 -11 34 -13 35 -51 30 -70 -10 -70 -10 -70 248 l0 229 -115 0 -115 0 0 -45z"/>
<path d="M5217 3104 c-107 -34 -163 -133 -155 -278 8 -146 77 -227 207 -243 53 -6 142 16 179 45 l22 17 -28 34 -28 33 -34 -21 c-52 -31 -114 -28 -150 7 -67 68 -67 236 0 304 34 34 98 38 145 10 l30 -19 27 35 c16 19 28 36 28 38 0 2 -19 13 -42 25 -54 27 -139 33 -201 13z"/>
<path d="M2840 3065 l0 -45 105 0 c58 0 105 -2 105 -5 0 -2 -54 -78 -120 -168 -113 -154 -120 -167 -120 -211 l0 -46 190 0 190 0 0 28 c0 15 3 37 6 50 6 22 6 22 -115 22 -66 0 -121 3 -121 6 0 3 52 77 115 164 107 147 115 161 115 204 l0 46 -175 0 -175 0 0 -45z"/>
<path d="M7903 3083 l-43 -4 0 -45 0 -44 -46 0 -45 0 3 -42 c3 -43 3 -43 46 -46 l42 -3 0 -112 c0 -153 22 -189 123 -203 28 -4 64 0 100 10 l56 16 -16 35 c-16 34 -17 35 -67 29 -76 -8 -80 -2 -84 121 l-4 105 61 0 c45 0 61 4 61 14 0 7 3 28 6 45 l7 31 -67 0 -66 0 0 50 c0 34 -4 49 -12 48 -7 -1 -32 -3 -55 -5z"/>
<path d="M9442 3028 c-24 -11 -80 -23 -125 -28 -96 -10 -124 -19 -154 -51 -52 -56 -53 -136 -3 -184 l29 -28 -19 -25 c-27 -34 -25 -74 5 -102 21 -19 38 -24 107 -28 88 -5 108 -13 108 -43 0 -26 -31 -39 -95 -39 -47 0 -60 4 -79 25 -18 19 -33 25 -65 25 -37 0 -41 -2 -41 -26 0 -72 50 -99 185 -99 147 0 206 36 209 126 2 75 -75 119 -205 119 -47 0 -50 2 -47 22 3 20 8 23 39 20 98 -9 179 52 179 132 0 33 -6 49 -26 70 -15 14 -32 27 -38 27 -6 1 13 5 42 9 29 4 55 10 57 12 2 2 -1 22 -8 44 l-12 40 -43 -18z m-98 -124 c9 -8 16 -31 16 -49 0 -41 -22 -65 -60 -65 -52 0 -79 72 -43 112 20 22 66 24 87 2z"/>
<path d="M6566 2998 c-86 -12 -134 -67 -121 -135 9 -48 38 -71 125 -102 80 -28 102 -49 81 -75 -18 -21 -100 -21 -145 0 -34 17 -35 17 -60 -12 -14 -16 -26 -32 -26 -36 0 -3 21 -17 48 -30 62 -30 178 -32 236 -4 68 34 94 107 59 166 -17 30 -52 49 -143 78 -37 11 -56 23 -58 36 -8 37 59 48 126 21 39 -17 45 -14 73 37 19 36 -101 70 -195 56z"/>
<path d="M3830 2994 c-65 -13 -91 -26 -85 -43 4 -9 9 -23 12 -33 4 -14 15 -16 77 -11 83 6 116 -5 116 -41 0 -21 -5 -24 -69 -29 -78 -6 -119 -24 -150 -63 -38 -48 -21 -140 31 -173 11 -7 41 -14 66 -17 37 -5 57 0 96 20 48 24 49 24 75 6 50 -36 66 -34 79 7 8 27 8 40 0 50 -6 7 -12 64 -13 129 -3 127 -14 155 -69 183 -30 14 -124 23 -166 15z m120 -256 c0 -40 -25 -68 -61 -68 -45 0 -59 10 -59 41 0 36 32 59 82 59 36 0 38 -2 38 -32z"/>
<path d="M4434 2991 c-11 -5 -34 -25 -52 -45 -17 -20 -33 -36 -35 -36 -3 0 -7 18 -11 40 l-6 40 -70 0 -70 0 0 -40 c0 -36 3 -40 25 -40 l25 0 0 -120 0 -120 -25 0 c-22 0 -25 -4 -25 -40 l0 -40 120 0 120 0 0 40 c0 39 -1 40 -35 40 -38 0 -38 -1 -37 77 1 58 21 104 54 127 35 25 48 20 48 -19 0 -33 2 -35 34 -35 l33 0 11 82 c6 46 9 85 7 87 -9 8 -92 10 -111 2z"/>
<path d="M5630 2984 c-83 -36 -129 -126 -115 -228 13 -102 69 -162 163 -173 90 -10 178 39 203 115 15 45 15 138 0 183 -31 94 -155 145 -251 103z m127 -101 c25 -37 24 -150 -1 -187 -14 -23 -23 -27 -54 -24 -52 4 -75 49 -69 136 6 75 25 102 73 102 25 0 38 -7 51 -27z"/>
<path d="M6154 2986 c-18 -8 -35 -19 -38 -25 -11 -17 -23 -13 -29 9 -4 17 -14 20 -56 20 l-51 0 0 -200 0 -200 60 0 60 0 0 140 c0 130 1 141 22 160 26 24 73 27 82 4 3 -9 6 -81 6 -160 l0 -144 58 0 58 0 -1 168 c-1 108 -6 175 -14 190 -25 47 -96 64 -157 38z"/>
<path d="M8854 2986 c-18 -8 -35 -19 -38 -25 -11 -17 -23 -13 -29 9 -4 17 -14 20 -56 20 l-51 0 0 -200 0 -200 60 0 60 0 0 140 c0 130 1 141 22 160 26 24 73 27 82 4 3 -9 6 -81 6 -160 l0 -144 58 0 58 0 -1 168 c-1 108 -6 175 -14 190 -25 47 -96 64 -157 38z"/>
<path d="M6880 2843 c0 -176 9 -217 53 -243 42 -26 84 -25 140 4 44 22 47 22 47 5 0 -16 8 -19 53 -19 l52 0 0 198 0 197 -58 3 -57 3 0 -145 c0 -138 -1 -146 -22 -160 -29 -21 -74 -21 -82 0 -3 9 -6 81 -6 160 l0 144 -60 0 -60 0 0 -147z"/>
<path d="M8250 2945 l0 -45 55 0 55 0 0 -110 0 -110 -55 0 -55 0 0 -45 0 -45 163 0 163 0 -2 38 c-1 20 -2 40 -3 45 -1 4 -23 7 -51 7 l-50 0 0 155 0 155 -110 0 -110 0 0 -45z"/>
</g>
</svg>